<svg width="24" height="22" viewBox="0 0 24 22" fill="none" xmlns="http://www.w3.org/2000/svg">
<path fill-rule="evenodd" clip-rule="evenodd" d="M0 3.6C0 2.64522 0.379285 1.72955 1.05442 1.05442C1.72955 0.379285 2.64522 0 3.6 0H20.4C21.3548 0 22.2705 0.379285 22.9456 1.05442C23.6207 1.72955 24 2.64522 24 3.6V6C24 6.31826 23.8736 6.62348 23.6485 6.84853C23.4235 7.07357 23.1183 7.2 22.8 7.2V18C22.8 18.9548 22.4207 19.8705 21.7456 20.5456C21.0705 21.2207 20.1548 21.6 19.2 21.6H4.8C3.84522 21.6 2.92955 21.2207 2.25442 20.5456C1.57928 19.8705 1.2 18.9548 1.2 18V7.2C0.88174 7.2 0.576515 7.07357 0.351472 6.84853C0.126428 6.62348 0 6.31826 0 6V3.6ZM3.6 7.2V18C3.6 18.3183 3.72643 18.6235 3.95147 18.8485C4.17652 19.0736 4.48174 19.2 4.8 19.2H19.2C19.5183 19.2 19.8235 19.0736 20.0485 18.8485C20.2736 18.6235 20.4 18.3183 20.4 18V7.2H3.6ZM2.4 4.8V3.6C2.4 3.28174 2.52643 2.97652 2.75147 2.75147C2.97652 2.52643 3.28174 2.4 3.6 2.4H20.4C20.7183 2.4 21.0235 2.52643 21.2485 2.75147C21.4736 2.97652 21.6 3.28174 21.6 3.6V4.8H2.4ZM7.2 12C7.2 11.6817 7.32643 11.3765 7.55147 11.1515C7.77652 10.9264 8.08174 10.8 8.4 10.8H15.6C15.9183 10.8 16.2235 10.9264 16.4485 11.1515C16.6736 11.3765 16.8 11.6817 16.8 12C16.8 12.3183 16.6736 12.6235 16.4485 12.8485C16.2235 13.0736 15.9183 13.2 15.6 13.2H8.4C8.08174 13.2 7.77652 13.0736 7.55147 12.8485C7.32643 12.6235 7.2 12.3183 7.2 12Z" fill="white"/>
</svg>
