<svg width="20" height="22" viewBox="0 0 20 22" fill="none" xmlns="http://www.w3.org/2000/svg">
<path d="M3.62497 10.2609L11.318 2.56787C12.1619 1.72395 13.3065 1.24984 14.5 1.24984C15.6935 1.24984 16.8381 1.72395 17.682 2.56787C18.5259 3.41179 19 4.55639 19 5.74987C19 6.94335 18.5259 8.08795 17.682 8.93187L6.74197 19.8719C6.46331 20.1504 6.13251 20.3713 5.76847 20.522C5.40442 20.6727 5.01426 20.7502 4.62027 20.7501C4.22627 20.75 3.83614 20.6723 3.47217 20.5215C3.1082 20.3706 2.77751 20.1495 2.49897 19.8709C2.22044 19.5922 1.99952 19.2614 1.84883 18.8974C1.69814 18.5333 1.62063 18.1432 1.62072 17.7492C1.62081 17.3552 1.69851 16.965 1.84937 16.6011C2.00023 16.2371 2.22131 15.9064 2.49997 15.6279L13.448 4.67987C13.732 4.40759 14.1116 4.2588 14.505 4.26379C14.8984 4.26877 15.2741 4.42813 15.5512 4.70752C15.8282 4.9869 15.9844 5.36395 15.986 5.75739C15.9877 6.15084 15.8347 6.52917 15.56 6.81087L7.74997 14.6209M13.439 4.68987L13.449 4.67987" stroke="white" stroke-width="1.5" stroke-linecap="round" stroke-linejoin="round"/>
</svg>
