<svg width="25" height="25" viewBox="0 0 25 25" fill="none" xmlns="http://www.w3.org/2000/svg">
<path d="M12.2357 0.777727C14.0716 0.776531 15.8833 1.19683 17.5311 2.00623C19.1789 2.81563 20.6189 3.99253 21.7401 5.44624C22.8614 6.89995 23.6339 8.59167 23.9982 10.391C24.3625 12.1904 24.3088 14.0494 23.8414 15.8248C23.3739 17.6001 22.5051 19.2445 21.3018 20.6311C20.0986 22.0177 18.5931 23.1096 16.9014 23.8226C15.2096 24.5356 13.3767 24.8507 11.544 24.7436C9.71123 24.6365 7.92753 24.1101 6.33031 23.2049L1.82089 24.7076C1.69834 24.7463 1.57042 24.7654 1.44191 24.764C1.25198 24.7639 1.06479 24.7186 0.89577 24.632C0.726747 24.5454 0.580719 24.4198 0.469704 24.2657C0.358688 24.1116 0.285861 23.9333 0.257219 23.7456C0.228577 23.5578 0.244941 23.3659 0.30496 23.1857L1.8017 18.6763C0.765062 16.8527 0.22546 14.7889 0.236874 12.6913C0.248289 10.5937 0.81032 8.53584 1.86674 6.72365C2.92317 4.91145 4.43694 3.40844 6.25663 2.36498C8.07631 1.32151 10.1381 0.774174 12.2357 0.777727ZM4.2567 18.9126L3.33802 21.671L6.09645 20.7523C6.26475 20.6949 6.44375 20.6759 6.62034 20.6967C6.79694 20.7174 6.96666 20.7774 7.11707 20.8722C9.11734 22.1382 11.5142 22.622 13.8489 22.2311C16.1836 21.8403 18.2922 20.6022 19.7711 18.7539C21.25 16.9055 21.9954 14.5767 21.8646 12.2131C21.7338 9.84953 20.7359 7.61719 19.0621 5.94333C17.3882 4.26947 15.1559 3.27165 12.7923 3.14084C10.4287 3.01002 8.09992 3.7554 6.25156 5.23432C4.40321 6.71323 3.16513 8.82182 2.77428 11.1565C2.38343 13.4912 2.86726 15.8881 4.13317 17.8883C4.22867 18.0391 4.28932 18.2093 4.31069 18.3865C4.33206 18.5637 4.31362 18.7434 4.2567 18.9126ZM6.23917 9.77258C6.23917 10.0907 6.36552 10.3957 6.59044 10.6206C6.81535 10.8455 7.1204 10.9719 7.43848 10.9719H17.033C17.3511 10.9719 17.6561 10.8455 17.881 10.6206C18.106 10.3957 18.2323 10.0907 18.2323 9.77258C18.2323 9.45451 18.106 9.14946 17.881 8.92454C17.6561 8.69963 17.3511 8.57327 17.033 8.57327H7.43848C7.1204 8.57327 6.81535 8.69963 6.59044 8.92454C6.36552 9.14946 6.23917 9.45451 6.23917 9.77258ZM6.71889 15.7692C6.71889 16.0872 6.84525 16.3923 7.07016 16.6172C7.29508 16.8421 7.60013 16.9685 7.91821 16.9685H12.7155C13.0335 16.9685 13.3386 16.8421 13.5635 16.6172C13.7884 16.3923 13.9148 16.0872 13.9148 15.7692C13.9148 15.4511 13.7884 15.146 13.5635 14.9211C13.3386 14.6962 13.0335 14.5698 12.7155 14.5698H7.91821C7.60013 14.5698 7.29508 14.6962 7.07016 14.9211C6.84525 15.146 6.71889 15.4511 6.71889 15.7692Z" fill="white"/>
</svg>
