<svg width="24" height="13" viewBox="0 0 24 13" fill="none" xmlns="http://www.w3.org/2000/svg">
<path d="M17.5 13H14V12H17.5C20.5376 12 23 9.53757 23 6.5C23 3.46243 20.5376 1 17.5 1H14V0H17.5C21.0899 0 24 2.91015 24 6.5C24 10.0899 21.0899 13 17.5 13Z" fill="white"/>
<path d="M6.5 1H11V0H6.5C2.91015 0 0 2.91015 0 6.5C0 10.0899 2.91015 13 6.5 13H11V12H6.5C3.46243 12 1 9.53757 1 6.5C1 3.46243 3.46243 1 6.5 1Z" fill="white"/>
<path d="M6 6C5.72386 6 5.5 6.22386 5.5 6.5C5.5 6.77614 5.72386 7 6 7H18C18.2761 7 18.5 6.77614 18.5 6.5C18.5 6.22386 18.2761 6 18 6H6Z" fill="white"/>
</svg>
