<svg width="26" height="26" viewBox="0 0 26 26" fill="none" xmlns="http://www.w3.org/2000/svg">
<path d="M17.2427 17.2427C16.6855 17.7998 16.0241 18.2418 15.2961 18.5433C14.5682 18.8449 13.7879 19.0001 13 19.0001C12.2121 19.0001 11.4318 18.8449 10.7039 18.5433C9.97592 18.2418 9.31449 17.7998 8.75733 17.2427M25 13C25 14.5759 24.6896 16.1363 24.0866 17.5922C23.4835 19.0481 22.5996 20.371 21.4853 21.4853C20.371 22.5996 19.0481 23.4835 17.5922 24.0866C16.1363 24.6896 14.5759 25 13 25C11.4241 25 9.86371 24.6896 8.4078 24.0866C6.95189 23.4835 5.62902 22.5996 4.51472 21.4853C3.40042 20.371 2.5165 19.0481 1.91345 17.5922C1.31039 16.1363 1 14.5759 1 13C1 9.8174 2.26428 6.76516 4.51472 4.51472C6.76516 2.26428 9.8174 1 13 1C16.1826 1 19.2348 2.26428 21.4853 4.51472C23.7357 6.76516 25 9.8174 25 13ZM10 10C10 10.552 9.776 11 9.5 11C9.224 11 9 10.552 9 10C9 9.448 9.224 9 9.5 9C9.776 9 10 9.448 10 10ZM9.5 10H9.51067V10.02H9.5V10ZM17 10C17 10.552 16.776 11 16.5 11C16.224 11 16 10.552 16 10C16 9.448 16.224 9 16.5 9C16.776 9 17 9.448 17 10ZM16.5 10H16.5107V10.02H16.5V10Z" stroke="white" stroke-width="1.5" stroke-linecap="round" stroke-linejoin="round"/>
</svg>
