<svg width="24" height="6" viewBox="0 0 24 6" fill="none" xmlns="http://www.w3.org/2000/svg">
<path d="M2.66667 3.17891e-07C4.13943 3.17891e-07 5.33333 1.19387 5.33333 2.66667C5.33333 4.13947 4.13943 5.33333 2.66667 5.33333C1.19391 5.33333 0 4.13947 0 2.66667C0 1.19387 1.19391 3.17891e-07 2.66667 3.17891e-07Z" fill="white"/>
<path d="M12 0C13.4728 0 14.6667 1.19387 14.6667 2.66667C14.6667 4.13947 13.4728 5.33333 12 5.33333C10.5272 5.33333 9.33333 4.13947 9.33333 2.66667C9.33333 1.19387 10.5272 0 12 0Z" fill="white"/>
<path d="M24 2.66667C24 1.19387 22.8061 0 21.3333 0C19.8605 0 18.6667 1.19387 18.6667 2.66667C18.6667 4.13947 19.8605 5.33333 21.3333 5.33333C22.8061 5.33333 24 4.13947 24 2.66667Z" fill="white"/>
</svg>
