<svg width="18" height="22" viewBox="0 0 18 22" fill="none" xmlns="http://www.w3.org/2000/svg">
<path d="M13.5 9.5V5.75C13.5 4.55653 13.0259 3.41193 12.182 2.56802C11.3381 1.72411 10.1935 1.25 9 1.25C7.80653 1.25 6.66193 1.72411 5.81802 2.56802C4.97411 3.41193 4.5 4.55653 4.5 5.75V9.5M3.75 20.75H14.25C14.8467 20.75 15.419 20.5129 15.841 20.091C16.2629 19.669 16.5 19.0967 16.5 18.5V11.75C16.5 11.1533 16.2629 10.581 15.841 10.159C15.419 9.73705 14.8467 9.5 14.25 9.5H3.75C3.15326 9.5 2.58097 9.73705 2.15901 10.159C1.73705 10.581 1.5 11.1533 1.5 11.75V18.5C1.5 19.0967 1.73705 19.669 2.15901 20.091C2.58097 20.5129 3.15326 20.75 3.75 20.75Z" stroke="white" stroke-width="1.5" stroke-linecap="round" stroke-linejoin="round"/>
</svg>
