<svg width="16" height="27" viewBox="0 0 16 27" fill="none" xmlns="http://www.w3.org/2000/svg">
<path d="M7.85714 21.2143C9.67577 21.2143 11.4199 20.4918 12.7059 19.2059C13.9918 17.9199 14.7143 16.1758 14.7143 14.3571V12.6429M7.85714 21.2143C6.03852 21.2143 4.29437 20.4918 3.00841 19.2059C1.72245 17.9199 1 16.1758 1 14.3571V12.6429M7.85714 21.2143V25.5M7.85714 17.7857C6.94783 17.7857 6.07576 17.4245 5.43278 16.7815C4.78979 16.1385 4.42857 15.2665 4.42857 14.3571V4.92857C4.42857 4.01926 4.78979 3.14719 5.43278 2.50421C6.07576 1.86122 6.94783 1.5 7.85714 1.5C8.76646 1.5 9.63853 1.86122 10.2815 2.50421C10.9245 3.14719 11.2857 4.01926 11.2857 4.92857V14.3571C11.2857 15.2665 10.9245 16.1385 10.2815 16.7815C9.63853 17.4245 8.76646 17.7857 7.85714 17.7857Z" stroke="white" stroke-width="1.5" stroke-linecap="round" stroke-linejoin="round"/>
</svg>
