<svg width="24" height="22" viewBox="0 0 24 22" fill="none" xmlns="http://www.w3.org/2000/svg">
<path fill-rule="evenodd" clip-rule="evenodd" d="M14.6476 16.7171C13.9735 16.4924 13.008 16.3636 11.9967 16.3636C10.9855 16.3636 10.02 16.4924 9.34582 16.7171C9.05127 16.8153 8.83964 16.9222 8.72509 17.0171V17.9989C8.72509 18.6065 8.71091 18.9142 8.63455 19.284C8.47091 20.0684 8.03455 20.676 7.19782 20.724C4.99636 21.0895 3.52582 21.2727 2.72727 21.2727C1.13673 21.2727 0 19.8513 0 18.5455V16.9091C0 12.8465 5.484 9.81709 11.9967 9.81818C18.5116 9.81927 23.9935 12.8476 23.9935 16.8796C23.9978 17.0607 24 17.2484 24 17.46C24 17.6149 24 17.7371 23.9967 18.0098L23.9935 18.5455C23.9935 19.8436 22.8545 21.2727 21.2662 21.2727C20.4687 21.2727 19.0004 21.0905 16.8022 20.7251C15.6545 20.6782 15.3382 19.8371 15.2782 18.5935C15.2693 18.3961 15.2657 18.1986 15.2673 18.0011V17.0182C15.1538 16.9233 14.9411 16.8153 14.6476 16.7171ZM6.54327 18V16.9091C6.54327 14.9825 8.95091 14.1818 11.9978 14.1818C15.0447 14.1818 17.4502 14.9825 17.4502 16.9091V18C17.4488 18.2081 17.4543 18.4162 17.4665 18.624C19.3756 18.9349 20.6596 19.0909 21.2662 19.0909C21.5269 19.0909 21.8116 18.7331 21.8116 18.5455C21.8116 18.3895 21.8116 18.2662 21.8149 17.9891L21.8182 17.46C21.8182 17.2669 21.816 17.0978 21.8116 16.9091C21.8116 14.4011 17.4665 12.0011 11.9967 12C6.528 11.9989 2.18182 14.4 2.18182 16.9091V18.5455C2.18182 18.7396 2.46218 19.0909 2.72727 19.0909C3.33382 19.0909 4.61782 18.9349 6.528 18.6229C6.53891 18.4767 6.54327 18.2847 6.54327 18ZM6.54545 3.72436V6.54545H4.36364V0H10.9091V2.18182H8.088L12 6.09382L17.7742 0.319636L19.3167 1.86218L12 9.17891L6.54545 3.72436Z" fill="white"/>
</svg>
