<svg width="27" height="27" viewBox="0 0 27 27" fill="none" xmlns="http://www.w3.org/2000/svg">
<path d="M15.4262 1.5H8.35476C5.12227 1.5 3.50603 1.5 2.50183 2.50421C1.49762 3.50841 1.49762 5.12465 1.49762 8.35714V18.6429C1.49762 21.8753 1.49762 23.4915 2.50183 24.4958C3.50603 25.5 5.12227 25.5 8.35476 25.5H18.6405C21.8729 25.5 23.4892 25.5 24.4934 24.4958C25.4976 23.4915 25.4976 21.8753 25.4976 18.6429V11.5714M9.83017 13.7562L20.9952 2.70519C21.8061 1.90356 23.0966 1.85935 23.9602 2.60359C24.9115 3.42322 24.9787 4.8737 24.1073 5.77773L13.1112 17.1489L9.28333 17.7143L9.83017 13.7562Z" stroke="white" stroke-width="2.66667" stroke-linecap="round" stroke-linejoin="round"/>
</svg>
