<svg width="24" height="24" viewBox="0 0 24 24" fill="none" xmlns="http://www.w3.org/2000/svg">
<path d="M11.3891 1.61371C10.3576 0.580471 8.95869 0 7.5 0C6.04131 0 4.64236 0.580471 3.61091 1.61371C2.57946 2.64696 2 4.04834 2 5.50957C2 6.97079 2.57946 8.37217 3.61091 9.40542C4.64236 10.4387 6.04131 11.0191 7.5 11.0191C8.95869 11.0191 10.3576 10.4387 11.3891 9.40542C12.4205 8.37217 13 6.97079 13 5.50957C13 4.04834 12.4205 2.64696 11.3891 1.61371Z" fill="white"/>
<path d="M13 13.0236C13.5046 13.0235 13.9906 13.2143 14.3605 13.558C14.7305 13.9017 14.9572 14.3728 14.995 14.8768L15 15.0271V17.5304C14.999 21.7377 10.713 23.04 7.5 23.04C4.351 23.04 0.171 21.7888 0.00500011 17.7799L0 17.5304V15.0261C0 13.9703 0.816 13.1048 1.85 13.0276L2 13.0226L13 13.0236Z" fill="white"/>
<path fill-rule="evenodd" clip-rule="evenodd" d="M22 13.0226L22.15 13.0276C22.6261 13.0637 23.0736 13.2691 23.4118 13.6067C23.75 13.9444 23.9565 14.392 23.994 14.8688L24 15.0261V17.0296C23.999 20.7951 20.57 22.0383 18 22.0383C16.942 22.0383 15.741 21.8229 14.691 21.312C14.9684 20.9817 15.2085 20.6195 15.4046 20.2198L15.3965 20.2165C15.7309 19.4082 15.9489 18.3217 16.0365 17.234C16.1243 16.1449 16.0774 15.1033 15.9123 14.3879L15.9218 14.3857C15.8261 13.9478 15.6322 13.5367 15.354 13.1839L15.22 13.0226H22ZM16.9248 14.5261L16.9177 14.5261C16.919 14.5337 16.9203 14.5414 16.9216 14.5491L16.9248 14.5261Z" fill="white"/>
<path d="M18.5 2.00348C19.0909 2.00348 19.6761 2.12008 20.2221 2.34662C20.768 2.57316 21.2641 2.9052 21.682 3.32379C22.0998 3.74238 22.4313 4.23932 22.6575 4.78623C22.8836 5.33315 23 5.91933 23 6.51131C23 7.10328 22.8836 7.68946 22.6575 8.23638C22.4313 8.78329 22.0998 9.28023 21.682 9.69882C21.2641 10.1174 20.768 10.4495 20.2221 10.676C19.6761 10.9025 19.0909 11.0191 18.5 11.0191C17.3065 11.0191 16.1619 10.5442 15.318 9.69882C14.4741 8.85344 14 7.70685 14 6.51131C14 5.31576 14.4741 4.16917 15.318 3.32379C16.1619 2.47841 17.3065 2.00348 18.5 2.00348Z" fill="white"/>
</svg>
