<svg width="18" height="18" viewBox="0 0 18 18" fill="none" xmlns="http://www.w3.org/2000/svg">
<path d="M6.33333 11.6667L1 17M10.7778 13.4444C11.5949 13.4444 12.404 13.2835 13.1589 12.9708C13.9138 12.6581 14.5998 12.1998 15.1776 11.622C15.7553 11.0442 16.2137 10.3583 16.5264 9.60336C16.8391 8.84845 17 8.03934 17 7.22222C17 6.40511 16.8391 5.596 16.5264 4.84108C16.2137 4.08617 15.7553 3.40023 15.1776 2.82245C14.5998 2.24466 13.9138 1.78633 13.1589 1.47364C12.404 1.16094 11.5949 1 10.7778 1C9.12754 1 7.5449 1.65555 6.378 2.82245C5.21111 3.98934 4.55556 5.57199 4.55556 7.22222C4.55556 8.87246 5.21111 10.4551 6.378 11.622C7.5449 12.7889 9.12754 13.4444 10.7778 13.4444Z" stroke="#A7A7A7" stroke-width="2" stroke-linecap="round" stroke-linejoin="round"/>
</svg>
