<svg width="24" height="15" viewBox="0 0 24 15" fill="none" xmlns="http://www.w3.org/2000/svg">
<path d="M0.38292 9.43207C0.622335 9.20064 0.943876 9.07381 1.27681 9.07946C1.60974 9.08511 1.92679 9.22279 2.15822 9.4622L4.09644 11.5423L15.4428 0.303895C15.6842 0.0961748 15.9954 -0.0120718 16.3136 0.00107068C16.6318 0.0142131 16.9331 0.147762 17.1565 0.37468C17.3799 0.601598 17.5087 0.90493 17.5169 1.22326C17.5251 1.54159 17.412 1.85114 17.2005 2.08924L4.95521 14.2203C4.72115 14.4518 4.40554 14.5821 4.07635 14.5831H4.06505C3.89936 14.5821 3.73551 14.5483 3.58295 14.4837C3.43039 14.419 3.29213 14.3248 3.17615 14.2065L0.352787 11.2074C0.121366 10.9679 -0.00546986 10.6464 0.00018104 10.3135C0.00583194 9.98054 0.143507 9.66349 0.38292 9.43207ZM21.9324 0.303895L10.5898 11.5423L10.2596 11.1995C10.1452 11.0803 10.0084 10.9848 9.85694 10.9185C9.70553 10.8523 9.54253 10.8166 9.37729 10.8135C9.21205 10.8103 9.04781 10.8399 8.89401 10.9004C8.74022 10.9609 8.59988 11.0512 8.48104 11.166C8.36221 11.2809 8.26723 11.4181 8.20154 11.5697C8.13585 11.7214 8.10076 11.8845 8.09826 12.0498C8.09577 12.215 8.12592 12.3792 8.187 12.5327C8.24808 12.6863 8.33887 12.8263 8.45418 12.9447L9.66701 14.2002C9.78299 14.3185 9.92125 14.4128 10.0738 14.4774C10.2264 14.542 10.3902 14.5759 10.5559 14.5769H10.5697C10.8989 14.5758 11.2145 14.4455 11.4486 14.214L23.6939 2.08296C23.9008 1.84381 24.0099 1.53537 23.9993 1.2193C23.9887 0.903221 23.8592 0.602793 23.6367 0.378061C23.4142 0.153329 23.115 0.020848 22.7991 0.00709807C22.4831 -0.00665183 22.1736 0.0993424 21.9324 0.303895Z" fill="white"/>
</svg>
