<svg width="24" height="24" viewBox="0 0 24 24" fill="none" xmlns="http://www.w3.org/2000/svg">
<path d="M18.7454 11.4818H3.63149L0.520172 1.06405C0.410559 0.697024 0.791333 0.375127 1.13851 0.550845C4.04377 2.0213 9.70104 4.89301 14.6315 7.44518C17.0971 8.72148 19.3786 9.91662 21.0426 10.8162C21.8754 11.2665 22.5491 11.6403 23.0127 11.9123C23.0574 11.9385 23.0999 11.9636 23.1401 11.9876C23.1036 12.01 23.0652 12.0335 23.0249 12.0578C22.573 12.3313 21.9162 12.7074 21.1045 13.1602C19.4826 14.0651 17.2599 15.2668 14.8603 16.5487C10.0621 19.1122 4.56673 21.9913 1.78051 23.4468C1.44351 23.6229 1.06333 23.3232 1.1503 22.9592L3.65363 12.4818H18.7454V11.4818Z" stroke="white"/>
</svg>
