<svg width="25" height="25" viewBox="0 0 25 25" fill="none" xmlns="http://www.w3.org/2000/svg">
<path d="M15.2052 0.5C15.3914 0.500006 15.5728 0.557607 15.7233 0.664507C15.8738 0.771408 15.9855 0.922092 16.0425 1.09486L17.01 4.02457C17.4163 4.21829 17.8051 4.436 18.1762 4.68114L21.2651 4.03314C21.4472 3.99525 21.637 4.01467 21.8071 4.08861C21.9772 4.16255 22.1188 4.28718 22.2115 4.44457L24.6495 8.55714C24.7426 8.71444 24.7821 8.89649 24.7621 9.07703C24.7422 9.25758 24.664 9.4273 24.5387 9.56171L22.4191 11.8417C22.4499 12.2789 22.4499 12.7177 22.4191 13.1549L24.5387 15.4383C24.664 15.5727 24.7422 15.7424 24.7621 15.923C24.7821 16.1035 24.7426 16.2856 24.6495 16.4429L22.2115 20.5571C22.1185 20.7142 21.9768 20.8385 21.8067 20.9121C21.6367 20.9857 21.4471 21.0049 21.2651 20.9669L18.1762 20.3189C17.8068 20.5623 17.4163 20.7817 17.0118 20.9754L16.0425 23.9051C15.9855 24.0779 15.8738 24.2286 15.7233 24.3355C15.5728 24.4424 15.3914 24.5 15.2052 24.5H10.3291C10.1429 24.5 9.96153 24.4424 9.81106 24.3355C9.66059 24.2286 9.54882 24.0779 9.49184 23.9051L8.52613 20.9771C8.12088 20.784 7.73 20.5635 7.35636 20.3171L4.26924 20.9669C4.08711 21.0048 3.89735 20.9853 3.72728 20.9114C3.55721 20.8375 3.41561 20.7128 3.32287 20.5554L0.884836 16.4429C0.791738 16.2856 0.752304 16.1035 0.772221 15.923C0.792139 15.7424 0.870377 15.5727 0.995656 15.4383L3.1153 13.1549C3.0846 12.7188 3.0846 12.2812 3.1153 11.8451L0.995656 9.56171C0.870377 9.4273 0.792139 9.25758 0.772221 9.07703C0.752304 8.89649 0.791738 8.71444 0.884836 8.55714L3.32287 4.44286C3.41586 4.28578 3.55757 4.1615 3.72762 4.08788C3.89767 4.01426 4.0873 3.99509 4.26924 4.03314L7.35636 4.68286C7.72928 4.43771 8.11979 4.21657 8.52613 4.02286L9.4936 1.09486C9.55039 0.922648 9.66164 0.772363 9.8114 0.665514C9.96117 0.558665 10.1418 0.50073 10.3274 0.5H15.2035H15.2052ZM14.5614 2.21429H10.973L9.97382 5.24343L9.3001 5.564C8.96891 5.72195 8.64919 5.9018 8.34318 6.10229L7.72048 6.51371L4.52606 5.84171L2.73183 8.87257L4.92184 11.2349L4.86907 11.9617C4.8438 12.3201 4.8438 12.6799 4.86907 13.0383L4.92184 13.7651L2.72831 16.1274L4.5243 19.1583L7.71872 18.488L8.34143 18.8977C8.64743 19.0982 8.96715 19.278 9.29835 19.436L9.97206 19.7566L10.973 22.7857H14.5649L15.5676 19.7549L16.2395 19.436C16.5704 19.2784 16.8895 19.0986 17.1947 18.8977L17.8156 18.488L21.0118 19.1583L22.806 16.1274L20.6143 13.7651L20.6671 13.0383C20.6924 12.6793 20.6924 12.319 20.6671 11.96L20.6143 11.2331L22.8078 8.87257L21.0118 5.84171L17.8156 6.51029L17.1947 6.10229C16.8896 5.9014 16.5704 5.72153 16.2395 5.564L15.5676 5.24514L14.5632 2.21429H14.5614ZM12.7672 7.35714C14.1668 7.35714 15.509 7.89898 16.4987 8.86345C17.4883 9.82792 18.0443 11.136 18.0443 12.5C18.0443 13.864 17.4883 15.1721 16.4987 16.1365C15.509 17.101 14.1668 17.6429 12.7672 17.6429C11.3676 17.6429 10.0253 17.101 9.03568 16.1365C8.04603 15.1721 7.49005 13.864 7.49005 12.5C7.49005 11.136 8.04603 9.82792 9.03568 8.86345C10.0253 7.89898 11.3676 7.35714 12.7672 7.35714ZM12.7672 9.07143C11.8341 9.07143 10.9393 9.43265 10.2795 10.0756C9.61975 10.7186 9.24909 11.5907 9.24909 12.5C9.24909 13.4093 9.61975 14.2814 10.2795 14.9244C10.9393 15.5673 11.8341 15.9286 12.7672 15.9286C13.7002 15.9286 14.5951 15.5673 15.2548 14.9244C15.9146 14.2814 16.2853 13.4093 16.2853 12.5C16.2853 11.5907 15.9146 10.7186 15.2548 10.0756C14.5951 9.43265 13.7002 9.07143 12.7672 9.07143Z" fill="white"/>
</svg>
