<svg width="26" height="26" viewBox="0 0 26 26" fill="none" xmlns="http://www.w3.org/2000/svg">
<path d="M1.5 12.9731C1.5 7.16534 5.78507 2.36158 11.3571 1.56287V1.70989C5.86216 2.50803 1.64286 7.2472 1.64286 12.9731C1.64286 14.2608 1.85644 15.4995 2.25037 16.6549L2.12097 16.7197C1.7186 15.5457 1.5 14.2854 1.5 12.9731ZM3.62249 19.6471L3.75259 19.5819C5.8114 22.4701 9.18582 24.3547 13 24.3547C16.7329 24.3547 20.0446 22.5495 22.114 19.7652L22.2407 19.8357C20.1443 22.6672 16.7854 24.5001 13 24.5001C9.13117 24.5001 5.70774 22.5853 3.62249 19.6471ZM14.6428 1.56286C20.2149 2.36151 24.5 7.1653 24.5 12.9731C24.5 14.3676 24.2532 15.7033 23.8012 16.9394L23.6743 16.8688C24.1162 15.6529 24.3571 14.3407 24.3571 12.9731C24.3571 7.24717 20.1378 2.50796 14.6428 1.70987V1.56286ZM19 13C19 16.3137 16.3137 19 13 19C9.68629 19 7 16.3137 7 13C7 9.68632 9.68629 7.00002 13 7.00002C16.3137 7.00002 19 9.68632 19 13Z" stroke="white" stroke-width="2"/>
</svg>
