<svg width="24" height="24" viewBox="0 0 24 24" fill="none" xmlns="http://www.w3.org/2000/svg">
<path d="M6.71646 20.2126L7.07761 20.4255C8.59441 21.3217 10.3336 21.7958 12.1071 21.7966H12.1108C17.5574 21.7966 21.99 17.3847 21.9923 11.962C21.9933 9.33428 20.9664 6.86321 19.1007 5.0044C18.1857 4.08768 17.0971 3.36077 15.8979 2.86572C14.6988 2.37068 13.4129 2.11735 12.1147 2.12038C6.66395 2.12038 2.23117 6.53183 2.22923 11.9542C2.22654 13.8057 2.75028 15.6202 3.73989 17.1879L3.975 17.5599L2.97656 21.1887L6.71646 20.2126ZM0.121989 24L1.80878 17.8687C0.768493 16.0744 0.221203 14.0388 0.221849 11.9534C0.224596 5.42925 5.55757 0.121618 12.111 0.121618C15.2912 0.123227 18.2761 1.3553 20.5211 3.59183C22.766 5.82836 24.0011 8.80117 24 11.9628C23.9971 18.4865 18.6633 23.7951 12.1108 23.7951H12.1057C10.1161 23.7943 8.16104 23.2973 6.42448 22.3547L0.121989 24Z" fill="#B3B3B3"/>
<path d="M0 23.8784L1.68679 17.7471C0.644713 15.9485 0.0973425 13.9081 0.09986 11.8317C0.102607 5.30763 5.43558 0 11.989 0C15.1692 0.00160867 18.1542 1.23369 20.3991 3.47021C22.644 5.70674 23.8791 8.67955 23.878 11.8412C23.8751 18.3648 18.5413 23.6734 11.9889 23.6734H11.9837C9.99408 23.6726 8.03905 23.1757 6.30249 22.233L0 23.8784Z" fill="white"/>
<path d="M11.9926 1.99876C6.54179 1.99876 2.10901 6.41021 2.10707 11.8325C2.10439 13.6841 2.62812 15.4986 3.61774 17.0663L3.85284 17.4383L2.8544 21.0672L6.59447 20.0909L6.95561 20.3039C8.47242 21.2001 10.2116 21.6742 11.9851 21.6752H11.9888C17.4354 21.6752 21.8682 17.2632 21.8703 11.8406C21.8744 10.5481 21.621 9.26767 21.1246 8.07338C20.6283 6.87909 19.8989 5.79469 18.9787 4.88294C18.0637 3.96618 16.975 3.23922 15.7758 2.74415C14.5767 2.24908 13.2908 1.99573 11.9926 1.99876Z" fill="url(#paint0_linear_212_44)"/>
<path d="M10.4358 4.51835C9.72344 4.67601 9.01877 4.89554 8.35812 5.22659C8.37322 5.80735 8.41093 6.3638 8.48739 6.92903C8.23082 7.09268 7.96118 7.23313 7.72154 7.4247C7.47806 7.61118 7.22935 7.78956 7.00888 8.00766C6.56842 7.71763 6.1023 7.44505 5.62204 7.20446C5.10436 7.75911 4.62029 8.35777 4.22488 9.02767C4.53563 9.51329 4.86893 10.0014 5.17761 10.382V14.4934C5.18516 14.4935 5.19277 14.4937 5.20026 14.4944L7.73205 14.7374C7.86467 14.7502 7.96859 14.8565 7.97782 14.9888L8.05591 16.1014L10.2644 16.2584L10.4165 15.2314C10.4362 15.0983 10.551 14.9995 10.6863 14.9995H13.3574C13.4926 14.9995 13.6073 15.0983 13.6271 15.2314L13.7792 16.2584L15.9877 16.1014L16.0657 14.9888C16.075 14.8565 16.1789 14.7503 16.3115 14.7374L18.8423 14.4944C18.8498 14.4937 18.8573 14.4935 18.8649 14.4934V14.1653L18.866 14.165V10.382C19.2225 9.93518 19.56 9.44233 19.8187 9.02767C19.4234 8.35777 18.9391 7.75911 18.4214 7.20446C17.9413 7.44505 17.475 7.71763 17.0345 8.00766C16.8141 7.78956 16.5659 7.61118 16.322 7.4247C16.0824 7.23313 15.8124 7.09268 15.5564 6.92903C15.6326 6.3638 15.6704 5.80735 15.6855 5.22659C15.0248 4.89554 14.3202 4.67601 13.6075 4.51835C13.323 4.99445 13.0628 5.51007 12.8361 6.01409C12.5674 5.96939 12.2974 5.95281 12.0271 5.94961V5.94916C12.0252 5.94916 12.0234 5.94961 12.0218 5.94961C12.0201 5.94961 12.0183 5.94916 12.0167 5.94916V5.94961C11.7458 5.95281 11.4761 5.96939 11.2072 6.01409C10.9808 5.51007 10.7207 4.99445 10.4358 4.51835ZM8.43276 10.5328C9.27548 10.5328 9.95856 11.2123 9.95856 12.051C9.95856 12.8902 9.27548 13.5701 8.43276 13.5701C7.59046 13.5701 6.90723 12.8902 6.90723 12.051C6.90723 11.2123 7.59046 10.5328 8.43276 10.5328ZM15.611 10.5328C16.4532 10.5328 17.1363 11.2123 17.1363 12.051C17.1363 12.8902 16.4532 13.5701 15.611 13.5701C14.7681 13.5701 14.0851 12.8902 14.0851 12.051C14.0851 11.2123 14.7681 10.5328 15.611 10.5328ZM12.0216 11.4212C12.2929 11.4212 12.5133 11.6204 12.5133 11.8656V13.2639C12.5133 13.5092 12.2929 13.7082 12.0216 13.7082C11.7504 13.7082 11.5306 13.5092 11.5306 13.2639V11.8656C11.5306 11.6204 11.7504 11.4212 12.0216 11.4212Z" fill="white"/>
<path d="M16.5936 15.2558L16.5152 16.3743C16.5057 16.5091 16.398 16.6164 16.2626 16.6261L13.5658 16.8177C13.5592 16.8182 13.5526 16.8184 13.5461 16.8184C13.4121 16.8184 13.2965 16.7205 13.2767 16.5865L13.122 15.5424H10.9216L10.7669 16.5865C10.7461 16.727 10.62 16.8281 10.4778 16.8177L7.78101 16.6261C7.64559 16.6164 7.53787 16.5091 7.52843 16.3743L7.45002 15.2558L5.17345 15.0372C5.1745 15.2808 5.17765 15.5477 5.17765 15.6008C5.17765 17.9945 8.22769 19.145 12.0171 19.1582H12.0264C15.8159 19.145 18.8649 17.9945 18.8649 15.6008C18.8649 15.5467 18.8682 15.281 18.8693 15.0372L16.5936 15.2558Z" fill="white"/>
<path d="M9.5914 12.1411C9.5914 12.6977 9.13822 13.1489 8.57864 13.1489C8.01934 13.1489 7.56588 12.6977 7.56588 12.1411C7.56588 11.5844 8.01934 11.1328 8.57864 11.1328C9.13822 11.1328 9.5914 11.5844 9.5914 12.1411Z" fill="white"/>
<path d="M14.4523 12.1411C14.4523 12.6977 14.9053 13.1489 15.4645 13.1489C16.0242 13.1489 16.4772 12.6977 16.4772 12.1411C16.4772 11.5844 16.0242 11.1328 15.4645 11.1328C14.9053 11.1328 14.4523 11.5844 14.4523 12.1411Z" fill="white"/>
<defs>
<linearGradient id="paint0_linear_212_44" x1="11.7557" y1="1.44026" x2="11.8773" y2="21.9497" gradientUnits="userSpaceOnUse">
<stop stop-color="#57D163"/>
<stop offset="1" stop-color="#23B33A"/>
</linearGradient>
</defs>
</svg>
