<svg width="24" height="24" viewBox="0 0 24 24" fill="none" xmlns="http://www.w3.org/2000/svg">
<path fill-rule="evenodd" clip-rule="evenodd" d="M1.68679 17.7471L0 23.8784L6.30249 22.233C8.03905 23.1757 9.99408 23.6726 11.9837 23.6734H11.9889C18.5413 23.6734 23.8751 18.3648 23.878 11.8412C23.8791 8.67955 22.644 5.70674 20.3991 3.47021C18.1542 1.23369 15.1692 0.00160866 11.989 0C5.43558 0 0.102607 5.30763 0.09986 11.8317C0.0973425 13.9081 0.644713 15.9485 1.68679 17.7471ZM2.00001 11.8338C2.00195 6.41147 6.43473 2.00003 11.8855 2.00003C13.1837 1.99699 14.4696 2.25034 15.6688 2.74541C16.868 3.24048 17.9566 3.96744 18.8717 4.8842C19.7918 5.79595 20.5212 6.88036 21.0176 8.07464C21.5139 9.26893 21.7673 10.5494 21.7632 11.8418C21.7611 17.2645 17.3284 21.6764 11.8818 21.6764H11.8781C10.1045 21.6755 8.36536 21.2014 6.84855 20.3052L6.48741 20.0922L2.74734 21.0685L3.74578 17.4395L3.51068 17.0676C2.52106 15.4999 1.99733 13.6854 2.00001 11.8338Z" fill="#444444"/>
<path d="M10.3727 4C9.64179 4.16153 8.91876 4.38646 8.2409 4.72566C8.2564 5.32071 8.2951 5.89085 8.37354 6.46998C8.11029 6.63765 7.83363 6.78156 7.58775 6.97784C7.33792 7.16891 7.08273 7.35168 6.85652 7.57515C6.40459 7.27798 5.92632 6.9987 5.43356 6.75219C4.90239 7.32048 4.40571 7.93387 4 8.62025C4.31885 9.11781 4.66083 9.61789 4.97755 10.0079V14.2204C4.9853 14.2205 4.99311 14.2207 5.00078 14.2215L7.59853 14.4705C7.7346 14.4836 7.84123 14.5925 7.8507 14.728L7.93082 15.868L10.1968 16.0288L10.3529 14.9766C10.3731 14.8402 10.4909 14.739 10.6297 14.739H13.3704C13.5091 14.739 13.6269 14.8402 13.6471 14.9766L13.8032 16.0288L16.0693 15.868L16.1493 14.728C16.1588 14.5925 16.2654 14.4836 16.4015 14.4705L18.9982 14.2215C19.0059 14.2208 19.0136 14.2205 19.0213 14.2204V13.8843L19.0225 13.884V10.0079C19.3883 9.55008 19.7346 9.04512 20 8.62025C19.5944 7.93387 19.0975 7.32048 18.5664 6.75219C18.0737 6.9987 17.5952 7.27798 17.1433 7.57515C16.9172 7.35168 16.6624 7.16891 16.4123 6.97784C16.1664 6.78156 15.8894 6.63765 15.6266 6.46998C15.7049 5.89085 15.7436 5.32071 15.7592 4.72566C15.0813 4.38646 14.3583 4.16153 13.627 4C13.3351 4.48781 13.0681 5.01611 12.8356 5.53254C12.5598 5.48673 12.2828 5.46975 12.0054 5.46647C12.0035 5.46647 12.0017 5.46647 12 5.46647C11.9983 5.46647 11.9965 5.466 11.9947 5.466C11.7169 5.46929 11.4401 5.48673 11.1642 5.53254C10.9319 5.01611 10.6651 4.48781 10.3727 4ZM8.31749 10.1624C9.18217 10.1624 9.88303 10.8586 9.88303 11.7179C9.88303 12.5778 9.18217 13.2744 8.31749 13.2744C7.45325 13.2744 6.75223 12.5778 6.75223 11.7179C6.75223 10.8586 7.45325 10.1624 8.31749 10.1624ZM15.6827 10.1624C16.5469 10.1624 17.2478 10.8586 17.2478 11.7179C17.2478 12.5778 16.5469 13.2744 15.6827 13.2744C14.8179 13.2744 14.1171 12.5778 14.1171 11.7179C14.1171 10.8586 14.8179 10.1624 15.6827 10.1624ZM11.9999 11.0727C12.2782 11.0727 12.5043 11.2768 12.5043 11.528V12.9607C12.5043 13.2121 12.2782 13.416 11.9999 13.416C11.7215 13.416 11.496 13.2121 11.496 12.9607V11.528C11.496 11.2768 11.7215 11.0727 11.9999 11.0727Z" fill="#444444"/>
<path d="M16.6909 15.0015L16.6104 16.1476C16.6007 16.2857 16.4902 16.3957 16.3513 16.4056L13.5842 16.6019C13.5775 16.6024 13.5707 16.6026 13.564 16.6026C13.4265 16.6026 13.3079 16.5023 13.2876 16.365L13.1289 15.2952H10.8711L10.7124 16.365C10.6911 16.509 10.5617 16.6125 10.4158 16.6019L7.64876 16.4056C7.50981 16.3957 7.39929 16.2857 7.3896 16.1476L7.30915 15.0015L4.97328 14.7776C4.97435 15.0272 4.97758 15.3006 4.97758 15.3551C4.97758 17.8076 8.10708 18.9864 11.9952 19H12.0048C15.8929 18.9864 19.0214 17.8076 19.0214 15.3551C19.0214 15.2996 19.0247 15.0274 19.0259 14.7776L16.6909 15.0015Z" fill="#444444"/>
<path d="M9.50632 11.8102C9.50632 12.3806 9.04133 12.8429 8.46718 12.8429C7.89331 12.8429 7.42803 12.3806 7.42803 11.8102C7.42803 11.2399 7.89331 10.7772 8.46718 10.7772C9.04133 10.7772 9.50632 11.2399 9.50632 11.8102Z" fill="#444444"/>
<path d="M14.4938 11.8102C14.4938 12.3806 14.9586 12.8429 15.5324 12.8429C16.1067 12.8429 16.5715 12.3806 16.5715 11.8102C16.5715 11.2399 16.1067 10.7772 15.5324 10.7772C14.9586 10.7772 14.4938 11.2399 14.4938 11.8102Z" fill="#444444"/>
</svg>
